<?xml version="1.0" encoding="utf-8"?>
<!-- Generator: Adobe Illustrator 18.0.0, SVG Export Plug-In . SVG Version: 6.00 Build 0)  -->
<!DOCTYPE svg PUBLIC "-//W3C//DTD SVG 1.1//EN" "http://www.w3.org/Graphics/SVG/1.1/DTD/svg11.dtd">
<svg version="1.1" id="Layer_1" xmlns="http://www.w3.org/2000/svg" xmlns:xlink="http://www.w3.org/1999/xlink" x="0px" y="0px"
	 viewBox="0 0 120 120" enable-background="new 0 0 120 120" xml:space="preserve">
<g>
	<g>
		<path d="M55.6,84.1h-5.7c0.4-0.5,0.8-1,1.3-1.5c3.7-4.2,7.9-9,7.9-14c0-5.8-4.4-9.9-10.5-9.9c-6,0-11.1,4.9-11.1,10.8
			c0,2.4,1.7,4.1,4.1,4.1c2.7,0,3.4-2.3,3.9-4c0.6-1.9,1-3,2.8-3c1.2,0,2.1,1,2.1,2.3c0,1.3-0.7,2.5-1.3,3.4c-2.2,3.2-4.7,6-7.1,8.7
			c-1.2,1.3-2.4,2.7-3.5,4c-0.5,0.6-1.2,1.6-1.2,2.8c0,2.4,1.7,3.8,4.4,3.8h14.4c2.5,0,4.1-1.5,4.1-3.8C60,85.6,58.3,84.1,55.6,84.1
			z"/>
		<path d="M74.2,69.2c-0.7,0-1.4,0.1-2,0.2l0.3-2.3h7.2c1.8,0,4-1.1,4-4.2c0-2.2-1.7-3.7-4.1-3.7H69.2c-3.1,0-3.9,1.7-4.3,5
			l-1.1,9.1c0,0.1,0,0.3,0,0.4c0,0.3-0.1,0.7-0.1,1.1c0,1.2,1.3,3,3.5,3c1.3,0,2.1-0.4,2.8-0.8c0.7-0.3,1.2-0.6,2.3-0.6
			c2.7,0,3.1,2.1,3.1,3.3c0,1.9-0.9,4.6-3.6,4.6c-1.3,0-2.5-0.8-3.6-1.5c-1-0.7-2-1.3-3-1.3c-2.1,0-3.9,1.8-3.9,3.9
			c0,4.4,6.8,6.8,10.5,6.8c7.8,0,12.4-4.8,12.4-12.9C84.1,73.6,79.9,69.2,74.2,69.2z"/>
	</g>
	<g>
		<path d="M45.6,34.5c-2.8,0-5-2.2-5-5v-10c0-2.8,2.2-5,5-5s5,2.2,5,5v10C50.6,32.3,48.4,34.5,45.6,34.5z"/>
		<path d="M75.6,34.5c-2.8,0-5-2.2-5-5v-10c0-2.8,2.2-5,5-5s5,2.2,5,5v10C80.6,32.3,78.4,34.5,75.6,34.5z"/>
	</g>
	<path d="M85.6,25.2h-2.5v5c0,4.1-3.4,7.5-7.5,7.5s-7.5-3.4-7.5-7.5v-5h-15v5c0,4.1-3.4,7.5-7.5,7.5s-7.5-3.4-7.5-7.5v-5h-2.5
		c-8.3,0-15,6.7-15,15v20v30c0,8.3,6.7,15,15,15h50c8.3,0,15-6.7,15-15v-30v-20C100.6,31.9,93.9,25.2,85.6,25.2z M90.6,90.2
		c0,2.8-2.2,5-5,5h-50c-2.8,0-5-2.2-5-5v-30c0-2.8,2.2-5,5-5h50c2.8,0,5,2.2,5,5V90.2z"/>
</g>
</svg>
