<?xml version="1.0" encoding="utf-8"?>
<!-- Generator: Adobe Illustrator 16.0.0, SVG Export Plug-In . SVG Version: 6.00 Build 0)  -->
<!DOCTYPE svg PUBLIC "-//W3C//DTD SVG 1.1//EN" "http://www.w3.org/Graphics/SVG/1.1/DTD/svg11.dtd">
<svg version="1.1" id="Calque_1" xmlns="http://www.w3.org/2000/svg" xmlns:xlink="http://www.w3.org/1999/xlink" x="0px" y="0px"
	 width="595.28px" height="595.28px" viewBox="0 0 595.28 595.28" enable-background="new 0 0 595.28 595.28" xml:space="preserve">
<path fill="#010101" d="M360.682,297.956l107.138,107.139c6.96,6.959,6.96,18.258,0,25.219l-37.805,37.805
	c-6.96,6.959-18.242,6.959-25.22,0L297.64,360.981L190.484,468.118c-6.959,6.959-18.241,6.959-25.202,0l-37.822-37.805
	c-6.959-6.961-6.959-18.244,0-25.221l107.156-107.138L127.46,190.8c-6.959-6.959-6.959-18.26,0-25.22l37.839-37.804
	c6.96-6.959,18.243-6.959,25.203,0L297.64,234.932l107.155-107.155c6.959-6.959,18.242-6.959,25.22,0l37.805,37.822
	c6.96,6.96,6.96,18.242,0,25.22L360.682,297.956L360.682,297.956z"/>
</svg>
