<?xml version="1.0" encoding="utf-8"?>
<!-- Generator: Adobe Illustrator 18.0.0, SVG Export Plug-In . SVG Version: 6.00 Build 0)  -->
<!DOCTYPE svg PUBLIC "-//W3C//DTD SVG 1.1//EN" "http://www.w3.org/Graphics/SVG/1.1/DTD/svg11.dtd">
<svg version="1.1" id="Layer_1" xmlns="http://www.w3.org/2000/svg" xmlns:xlink="http://www.w3.org/1999/xlink" x="0px" y="0px"
	 viewBox="0 0 120 120" enable-background="new 0 0 120 120" xml:space="preserve">
<path d="M77.7,70.6L67.1,60l10.6-10.6c2-2,2-5.1,0-7.1c-2-2-5.1-2-7.1,0L60.2,52.8L49.7,42.3c-2-2-5.1-2-7.1,0c-2,2-2,5.1,0,7.1
	L53.2,60L42.6,70.6c-2,2-2,5.1,0,7.1c2,2,5.1,2,7.1,0l10.5-10.5l10.5,10.5c2,2,5.1,2,7.1,0C79.7,75.7,79.7,72.6,77.7,70.6z"/>
</svg>
