<?xml version="1.0" encoding="utf-8"?>
<!-- Generator: Adobe Illustrator 18.0.0, SVG Export Plug-In . SVG Version: 6.00 Build 0)  -->
<!DOCTYPE svg PUBLIC "-//W3C//DTD SVG 1.1//EN" "http://www.w3.org/Graphics/SVG/1.1/DTD/svg11.dtd">
<svg version="1.1" id="Layer_1" xmlns="http://www.w3.org/2000/svg" xmlns:xlink="http://www.w3.org/1999/xlink" x="0px" y="0px"
	 viewBox="0 0 120 120" enable-background="new 0 0 120 120" xml:space="preserve">
<g>
	<path d="M72.5,52.2L66,58.7V35.6c0-2.8-2.2-5-5-5s-5,2.2-5,5v23.1l-6.5-6.5c-1-1-2.3-1.5-3.5-1.5s-2.6,0.5-3.5,1.5
		c-2,2-2,5.1,0,7.1l15,15c2,2,5.1,2,7.1,0l15-15c2-2,2-5.1,0-7.1C77.6,50.3,74.4,50.3,72.5,52.2z"/>
	<path d="M86,79.6H36c-2.8,0-5,2.2-5,5s2.2,5,5,5h50c2.8,0,5-2.2,5-5S88.8,79.6,86,79.6z"/>
</g>
</svg>
