<?xml version="1.0" encoding="utf-8"?>
<!-- Generator: Adobe Illustrator 18.0.0, SVG Export Plug-In . SVG Version: 6.00 Build 0)  -->
<!DOCTYPE svg PUBLIC "-//W3C//DTD SVG 1.1//EN" "http://www.w3.org/Graphics/SVG/1.1/DTD/svg11.dtd">
<svg version="1.1" id="Layer_1" xmlns="http://www.w3.org/2000/svg" xmlns:xlink="http://www.w3.org/1999/xlink" x="0px" y="0px"
	 viewBox="0 0 120 120" enable-background="new 0 0 120 120" xml:space="preserve">
<path id="White_2_" d="M92.8,22.7H28.2c-2.2,0-4,1.8-4,4v64.6c0,2.2,1.8,4,4,4H63V67.2h-9.5v-11H63v-8.1c0-9.4,5.7-14.5,14.1-14.5
	c4,0,7.4,0.3,8.5,0.4v9.8l-5.8,0c-4.5,0-5.4,2.2-5.4,5.3v7h10.8l-1.4,11h-9.4v28.1h18.5c2.2,0,4-1.8,4-4V26.7
	C96.8,24.5,95,22.7,92.8,22.7z"/>
</svg>
