<?xml version="1.0" encoding="utf-8"?>
<!-- Generator: Adobe Illustrator 18.0.0, SVG Export Plug-In . SVG Version: 6.00 Build 0)  -->
<!DOCTYPE svg PUBLIC "-//W3C//DTD SVG 1.1//EN" "http://www.w3.org/Graphics/SVG/1.1/DTD/svg11.dtd">
<svg version="1.1" id="Layer_1" xmlns="http://www.w3.org/2000/svg" xmlns:xlink="http://www.w3.org/1999/xlink" x="0px" y="0px"
	 viewBox="0 0 120 120" enable-background="new 0 0 120 120" xml:space="preserve">
<path fill-rule="evenodd" clip-rule="evenodd" d="M47.3,56.8v8.1h13.3c-0.5,3.5-4,10.1-13.3,10.1c-8,0-14.6-6.6-14.6-14.8
	c0-8.2,6.5-14.8,14.6-14.8c4.6,0,7.6,1.9,9.4,3.6l6.4-6.1c-4.1-3.8-9.4-6.1-15.7-6.1c-13,0-23.5,10.5-23.5,23.5
	c0,13,10.5,23.5,23.5,23.5c13.6,0,22.5-9.5,22.5-22.9c0-1.5-0.2-2.7-0.4-3.9H47.3L47.3,56.8L47.3,56.8z M47.3,56.8"/>
<polyline fill-rule="evenodd" clip-rule="evenodd" points="97.6,56.8 90.9,56.8 90.9,50.1 84.2,50.1 84.2,56.8 77.5,56.8 77.5,63.5 
	84.2,63.5 84.2,70.3 90.9,70.3 90.9,63.5 97.6,63.5 "/>
</svg>
