<?xml version="1.0" encoding="utf-8"?>
<!-- Generator: Adobe Illustrator 18.0.0, SVG Export Plug-In . SVG Version: 6.00 Build 0)  -->
<!DOCTYPE svg PUBLIC "-//W3C//DTD SVG 1.1//EN" "http://www.w3.org/Graphics/SVG/1.1/DTD/svg11.dtd">
<svg version="1.1" id="Layer_1" xmlns="http://www.w3.org/2000/svg" xmlns:xlink="http://www.w3.org/1999/xlink" x="0px" y="0px"
	 viewBox="0 0 120 120" enable-background="new 0 0 120 120" xml:space="preserve">
<g>
	<path d="M67,48.7l6.5,6.5H50.4c-2.8,0-5,2.2-5,5s2.2,5,5,5h23.1L67,71.6c-1,1-1.5,2.3-1.5,3.5s0.5,2.6,1.5,3.5c2,2,5.1,2,7.1,0
		l15-15c2-2,2-5.1,0-7.1l-15-15c-2-2-5.1-2-7.1,0C65,43.5,65,46.7,67,48.7z"/>
	<path d="M41.5,85.1v-50c0-2.8-2.2-5-5-5s-5,2.2-5,5v50c0,2.8,2.2,5,5,5S41.5,87.9,41.5,85.1z"/>
</g>
</svg>
