<?xml version="1.0" encoding="utf-8"?>
<!-- Generator: Adobe Illustrator 18.0.0, SVG Export Plug-In . SVG Version: 6.00 Build 0)  -->
<!DOCTYPE svg PUBLIC "-//W3C//DTD SVG 1.1//EN" "http://www.w3.org/Graphics/SVG/1.1/DTD/svg11.dtd">
<svg version="1.1" id="Layer_1" xmlns="http://www.w3.org/2000/svg" xmlns:xlink="http://www.w3.org/1999/xlink" x="0px" y="0px"
	 viewBox="0 0 120 120" enable-background="new 0 0 120 120" xml:space="preserve">
<path d="M84.6,78.4c11.7-11.7,11.7-30.7,0-42.4s-30.7-11.7-42.4,0c-9.2,9.2-11.2,23-5.9,34.1l-8.1,8.1c-3.9,3.9-3.9,10.3,0,14.1
	c3.9,3.9,10.3,3.9,14.1,0l8.1-8.1C61.6,89.5,75.4,87.6,84.6,78.4z M49.2,71.3c-7.8-7.8-7.8-20.5,0-28.3s20.5-7.8,28.3,0
	s7.8,20.5,0,28.3S57,79.1,49.2,71.3z"/>
</svg>
