<?xml version="1.0" encoding="utf-8"?>
<!-- Generator: Adobe Illustrator 16.0.0, SVG Export Plug-In . SVG Version: 6.00 Build 0)  -->
<!DOCTYPE svg PUBLIC "-//W3C//DTD SVG 1.1//EN" "http://www.w3.org/Graphics/SVG/1.1/DTD/svg11.dtd">
<svg version="1.1" id="Calque_1" xmlns="http://www.w3.org/2000/svg" xmlns:xlink="http://www.w3.org/1999/xlink" x="0px" y="0px"
	 width="595.28px" height="595.28px" viewBox="0 0 595.28 595.28" enable-background="new 0 0 595.28 595.28" xml:space="preserve">
<path fill="#010101" d="M483.239,265.946h-371.2c-16.008,0-17.4,14.304-17.4,32c0,17.695,1.392,32,17.4,32h371.2
	c16.008,0,17.4-14.305,17.4-32C500.64,280.25,499.247,265.946,483.239,265.946z M483.239,393.945h-371.2
	c-16.008,0-17.4,14.305-17.4,32c0,17.697,1.392,32,17.4,32h371.2c16.008,0,17.4-14.303,17.4-32
	C500.64,408.25,499.247,393.945,483.239,393.945z M112.04,201.946h371.2c16.008,0,17.4-14.304,17.4-32s-1.393-32-17.4-32h-371.2
	c-16.008,0-17.4,14.304-17.4,32S96.032,201.946,112.04,201.946L112.04,201.946z"/>
</svg>
