<?xml version="1.0" encoding="utf-8"?>
<!-- Generator: Adobe Illustrator 18.0.0, SVG Export Plug-In . SVG Version: 6.00 Build 0)  -->
<!DOCTYPE svg PUBLIC "-//W3C//DTD SVG 1.1//EN" "http://www.w3.org/Graphics/SVG/1.1/DTD/svg11.dtd">
<svg version="1.1" id="Layer_1" xmlns="http://www.w3.org/2000/svg" xmlns:xlink="http://www.w3.org/1999/xlink" x="0px" y="0px"
	 viewBox="0 0 120 120" enable-background="new 0 0 120 120" xml:space="preserve">
<g>
	<path d="M50.1,81.2L38.8,69.9c-0.8-0.8-0.8-2.1,0-2.8l28.3-28.3c0.8-0.8,2.1-0.8,2.8,0l11.3,11.3c0.8,0.8,0.8,2.1,0,2.8L52.9,81.2
		C52.2,82,50.9,82,50.1,81.2z"/>
	<path d="M87,33c-3.9-3.9-10.2-3.9-14.1,0L72,33.8c-0.8,0.8-0.8,2.1,0,2.8L83.3,48c0.8,0.8,2.1,0.8,2.8,0l0.8-0.8
		C90.9,43.3,90.9,36.9,87,33z"/>
	<path d="M39.8,86.9c0.2-0.7,0-1.4-0.5-1.9l-4.2-4.2c-0.5-0.5-1.2-0.7-1.9-0.5c-0.7,0.2-1.2,0.7-1.4,1.4l-1.5,5.7
		c-0.2,0.7,0,1.4,0.5,1.9c0.5,0.5,1.2,0.7,1.9,0.5l5.7-1.5C39,88.1,39.6,87.6,39.8,86.9z"/>
</g>
</svg>
