<?xml version="1.0" encoding="utf-8"?>
<!-- Generator: Adobe Illustrator 18.0.0, SVG Export Plug-In . SVG Version: 6.00 Build 0)  -->
<!DOCTYPE svg PUBLIC "-//W3C//DTD SVG 1.1//EN" "http://www.w3.org/Graphics/SVG/1.1/DTD/svg11.dtd">
<svg version="1.1" id="Layer_1" xmlns="http://www.w3.org/2000/svg" xmlns:xlink="http://www.w3.org/1999/xlink" x="0px" y="0px"
	 viewBox="0 0 120 120" enable-background="new 0 0 120 120" xml:space="preserve">
<path d="M79.5,35.7c-0.7-0.4-1.6-0.6-2.4-0.6c-1.8,0-3.5,1-4.4,2.6l-19,35L46,68.5c-0.7-0.4-1.6-0.6-2.4-0.6c-1.8,0-3.5,1-4.4,2.6
	c-0.6,1.2-0.8,2.5-0.4,3.8s1.2,2.3,2.4,3l10.4,5.7c0.3,0.2,0.6,0.3,0.9,0.4c0.3,0.2,0.5,0.4,0.8,0.6c0.7,0.4,1.6,0.6,2.4,0.6
	c0,0,0,0,0,0c1.8,0,3.5-1,4.4-2.6l21.4-39.4C82.9,40,82,37,79.5,35.7z"/>
</svg>
