<?xml version="1.0" encoding="utf-8"?>
<!-- Generator: Adobe Illustrator 18.0.0, SVG Export Plug-In . SVG Version: 6.00 Build 0)  -->
<!DOCTYPE svg PUBLIC "-//W3C//DTD SVG 1.1//EN" "http://www.w3.org/Graphics/SVG/1.1/DTD/svg11.dtd">
<svg version="1.1" id="Layer_1" xmlns="http://www.w3.org/2000/svg" xmlns:xlink="http://www.w3.org/1999/xlink" x="0px" y="0px"
	 viewBox="0 0 120 120" enable-background="new 0 0 120 120" xml:space="preserve">
<path d="M99.7,34.9c-2.9,1.3-5.9,2.1-9.2,2.5c3.3-2,5.8-5.1,7-8.8c-3.1,1.8-6.5,3.2-10.1,3.9c-2.9-3.1-7-5-11.6-5
	c-8.8,0-15.9,7.1-15.9,15.9c0,1.2,0.1,2.5,0.4,3.6c-13.2-0.7-25-7-32.8-16.7c-1.4,2.4-2.2,5.1-2.2,8c0,5.5,2.8,10.4,7.1,13.3
	c-2.6-0.1-5.1-0.8-7.2-2c0,0.1,0,0.1,0,0.2c0,7.7,5.5,14.2,12.8,15.6c-1.3,0.4-2.7,0.6-4.2,0.6c-1,0-2-0.1-3-0.3
	c2,6.3,7.9,10.9,14.9,11.1c-5.5,4.3-12.3,6.8-19.8,6.8c-1.3,0-2.6-0.1-3.8-0.2c7.1,4.5,15.4,7.2,24.4,7.2
	c29.3,0,45.3-24.3,45.3-45.3c0-0.7,0-1.4,0-2.1C94.8,40.9,97.5,38.1,99.7,34.9z"/>
</svg>
