<?xml version="1.0" encoding="utf-8"?>
<!-- Generator: Adobe Illustrator 18.0.0, SVG Export Plug-In . SVG Version: 6.00 Build 0)  -->
<!DOCTYPE svg PUBLIC "-//W3C//DTD SVG 1.1//EN" "http://www.w3.org/Graphics/SVG/1.1/DTD/svg11.dtd">
<svg version="1.1" id="Layer_1" xmlns="http://www.w3.org/2000/svg" xmlns:xlink="http://www.w3.org/1999/xlink" x="0px" y="0px"
	 viewBox="0 0 120 120" enable-background="new 0 0 120 120" xml:space="preserve">
<g>
	<path d="M49.5,54.2l6.5-6.5v23.1c0,2.8,2.2,5,5,5s5-2.2,5-5V47.7l6.5,6.5c1,1,2.3,1.5,3.5,1.5s2.6-0.5,3.5-1.5c2-2,2-5.1,0-7.1
		l-15-15c-2-2-5.1-2-7.1,0l-15,15c-2,2-2,5.1,0,7.1C44.4,56.1,47.6,56.1,49.5,54.2z"/>
	<path d="M86,79.6H36c-2.8,0-5,2.2-5,5s2.2,5,5,5h50c2.8,0,5-2.2,5-5S88.8,79.6,86,79.6z"/>
</g>
</svg>
