<?xml version="1.0" encoding="utf-8"?>
<!-- Generator: Adobe Illustrator 18.0.0, SVG Export Plug-In . SVG Version: 6.00 Build 0)  -->
<!DOCTYPE svg PUBLIC "-//W3C//DTD SVG 1.1//EN" "http://www.w3.org/Graphics/SVG/1.1/DTD/svg11.dtd">
<svg version="1.1" id="Layer_1" xmlns="http://www.w3.org/2000/svg" xmlns:xlink="http://www.w3.org/1999/xlink" x="0px" y="0px"
	 viewBox="0 0 120 120" enable-background="new 0 0 120 120" xml:space="preserve">
<path d="M93.4,82.5l-28.9-50C63.6,31,62,30,60.2,30s-3.4,1-4.3,2.5L27,82.5c-0.9,1.5-0.9,3.5,0,5s2.5,2.5,4.3,2.5h57.7
	c1.8,0,3.4-1,4.3-2.5S94.3,84,93.4,82.5z M63,79.8c-0.8,0.7-1.8,1.2-2.8,1.2s-2.1-0.4-2.8-1.2c-0.7-0.7-1.2-1.8-1.2-2.8
	s0.4-2.1,1.2-2.8c0.7-0.7,1.8-1.2,2.8-1.2c1.1,0,2.1,0.4,2.8,1.2c0.8,0.8,1.2,1.8,1.2,2.8C64.2,78.1,63.8,79.1,63,79.8z M64.2,64
	c0,2.2-1.8,4-4,4s-4-1.8-4-4V54c0-2.2,1.8-4,4-4s4,1.8,4,4V64z"/>
</svg>
